<svg xmlns="http://www.w3.org/2000/svg" xmlns:xlink="http://www.w3.org/1999/xlink" contentStyleType="text/css" data-diagram-type="SEQUENCE" height="802px" preserveAspectRatio="none" style="width:1097px;height:802px;background:#FFFFFF;" version="1.1" viewBox="0 0 1097 802" width="1097px" zoomAndPan="magnify"><title>Laravel Filament Resource Sequence Diagram</title><defs/><g><text fill="#000000" font-family="sans-serif" font-size="14" font-weight="bold" lengthAdjust="spacing" textLength="363.5283" x="365.9524" y="27.9951">Laravel Filament Resource Sequence Diagram</text><g><title>User</title><rect fill="#000000" fill-opacity="0.00000" height="602.6563" width="8" x="19.9551" y="118.5938"/><line style="stroke:#181818;stroke-width:0.5;stroke-dasharray:5,5;" x1="23" x2="23" y1="118.5938" y2="721.25"/></g><g><title>Web .routes.web.php.</title><rect fill="#000000" fill-opacity="0.00000" height="602.6563" width="8" x="172.6221" y="118.5938"/><line style="stroke:#181818;stroke-width:0.5;stroke-dasharray:5,5;" x1="176.5864" x2="176.5864" y1="118.5938" y2="721.25"/></g><g><title>Controller</title><rect fill="#000000" fill-opacity="0.00000" height="602.6563" width="8" x="430.5205" y="118.5938"/><line style="stroke:#181818;stroke-width:0.5;stroke-dasharray:5,5;" x1="433.9341" x2="433.9341" y1="118.5938" y2="721.25"/></g><g><title>Filament Admin Pages</title><rect fill="#000000" fill-opacity="0.00000" height="602.6563" width="8" x="595.813" y="118.5938"/><line style="stroke:#181818;stroke-width:0.5;stroke-dasharray:5,5;" x1="599.5107" x2="599.5107" y1="118.5938" y2="721.25"/></g><g><title>Filament User Pages</title><rect fill="#000000" fill-opacity="0.00000" height="602.6563" width="8" x="769.9404" y="118.5938"/><line style="stroke:#181818;stroke-width:0.5;stroke-dasharray:5,5;" x1="773.1152" x2="773.1152" y1="118.5938" y2="721.25"/></g><g><title>Models</title><rect fill="#000000" fill-opacity="0.00000" height="602.6563" width="8" x="913.0605" y="118.5938"/><line style="stroke:#181818;stroke-width:0.5;stroke-dasharray:5,5;" x1="916.3965" x2="916.3965" y1="118.5938" y2="721.25"/></g><g><title>Views</title><rect fill="#000000" fill-opacity="0.00000" height="602.6563" width="8" x="1060.021" y="118.5938"/><line style="stroke:#181818;stroke-width:0.5;stroke-dasharray:5,5;" x1="1063.6089" x2="1063.6089" y1="118.5938" y2="721.25"/></g><g class="participant participant-head" data-participant="User"><text fill="#000000" font-family="sans-serif" font-size="14" lengthAdjust="spacing" textLength="31.9102" x="5" y="115.292">User</text><ellipse cx="23.9551" cy="50.7969" fill="#E2E2F0" rx="8" ry="8" style="stroke:#181818;stroke-width:0.5;"/><path d="M23.9551,58.7969 L23.9551,85.7969 M10.9551,66.7969 L36.9551,66.7969 M23.9551,85.7969 L10.9551,100.7969 M23.9551,85.7969 L36.9551,100.7969" fill="none" style="stroke:#181818;stroke-width:0.5;"/></g><g class="participant participant-tail" data-participant="User"><text fill="#000000" font-family="sans-serif" font-size="14" lengthAdjust="spacing" textLength="31.9102" x="5" y="733.2451">User</text><ellipse cx="23.9551" cy="745.0469" fill="#E2E2F0" rx="8" ry="8" style="stroke:#181818;stroke-width:0.5;"/><path d="M23.9551,753.0469 L23.9551,780.0469 M10.9551,761.0469 L36.9551,761.0469 M23.9551,780.0469 L10.9551,795.0469 M23.9551,780.0469 L36.9551,795.0469" fill="none" style="stroke:#181818;stroke-width:0.5;"/></g><g class="participant participant-head" data-participant="Web"><rect fill="#E2E2F0" height="30.2969" rx="2.5" ry="2.5" style="stroke:#181818;stroke-width:0.5;" width="170.0713" x="91.5864" y="87.2969"/><text fill="#000000" font-family="sans-serif" font-size="14" lengthAdjust="spacing" textLength="156.0713" x="98.5864" y="107.292">Web (routes/web.php)</text></g><g class="participant participant-tail" data-participant="Web"><rect fill="#E2E2F0" height="30.2969" rx="2.5" ry="2.5" style="stroke:#181818;stroke-width:0.5;" width="170.0713" x="91.5864" y="720.25"/><text fill="#000000" font-family="sans-serif" font-size="14" lengthAdjust="spacing" textLength="156.0713" x="98.5864" y="740.2451">Web (routes/web.php)</text></g><g class="participant participant-head" data-participant="Controller"><rect fill="#E2E2F0" height="30.2969" rx="2.5" ry="2.5" style="stroke:#181818;stroke-width:0.5;" width="83.1729" x="392.9341" y="87.2969"/><text fill="#000000" font-family="sans-serif" font-size="14" lengthAdjust="spacing" textLength="69.1729" x="399.9341" y="107.292">Controller</text></g><g class="participant participant-tail" data-participant="Controller"><rect fill="#E2E2F0" height="30.2969" rx="2.5" ry="2.5" style="stroke:#181818;stroke-width:0.5;" width="83.1729" x="392.9341" y="720.25"/><text fill="#000000" font-family="sans-serif" font-size="14" lengthAdjust="spacing" textLength="69.1729" x="399.9341" y="740.2451">Controller</text></g><g class="participant participant-head" data-participant="Admin"><rect fill="#E2E2F0" height="30.2969" rx="2.5" ry="2.5" style="stroke:#181818;stroke-width:0.5;" width="170.6045" x="514.5107" y="87.2969"/><text fill="#000000" font-family="sans-serif" font-size="14" lengthAdjust="spacing" textLength="156.6045" x="521.5107" y="107.292">Filament Admin Pages</text></g><g class="participant participant-tail" data-participant="Admin"><rect fill="#E2E2F0" height="30.2969" rx="2.5" ry="2.5" style="stroke:#181818;stroke-width:0.5;" width="170.6045" x="514.5107" y="720.25"/><text fill="#000000" font-family="sans-serif" font-size="14" lengthAdjust="spacing" textLength="156.6045" x="521.5107" y="740.2451">Filament Admin Pages</text></g><g class="participant participant-head" data-participant="UserPanel"><rect fill="#E2E2F0" height="30.2969" rx="2.5" ry="2.5" style="stroke:#181818;stroke-width:0.5;" width="157.6504" x="695.1152" y="87.2969"/><text fill="#000000" font-family="sans-serif" font-size="14" lengthAdjust="spacing" textLength="143.6504" x="702.1152" y="107.292">Filament User Pages</text></g><g class="participant participant-tail" data-participant="UserPanel"><rect fill="#E2E2F0" height="30.2969" rx="2.5" ry="2.5" style="stroke:#181818;stroke-width:0.5;" width="157.6504" x="695.1152" y="720.25"/><text fill="#000000" font-family="sans-serif" font-size="14" lengthAdjust="spacing" textLength="143.6504" x="702.1152" y="740.2451">Filament User Pages</text></g><g class="participant participant-head" data-participant="Models"><rect fill="#E2E2F0" height="30.2969" rx="2.5" ry="2.5" style="stroke:#181818;stroke-width:0.5;" width="63.3281" x="885.3965" y="87.2969"/><text fill="#000000" font-family="sans-serif" font-size="14" lengthAdjust="spacing" textLength="49.3281" x="892.3965" y="107.292">Models</text></g><g class="participant participant-tail" data-participant="Models"><rect fill="#E2E2F0" height="30.2969" rx="2.5" ry="2.5" style="stroke:#181818;stroke-width:0.5;" width="63.3281" x="885.3965" y="720.25"/><text fill="#000000" font-family="sans-serif" font-size="14" lengthAdjust="spacing" textLength="49.3281" x="892.3965" y="740.2451">Models</text></g><g class="participant participant-head" data-participant="Views"><rect fill="#E2E2F0" height="30.2969" rx="2.5" ry="2.5" style="stroke:#181818;stroke-width:0.5;" width="54.8242" x="1036.6089" y="87.2969"/><text fill="#000000" font-family="sans-serif" font-size="14" lengthAdjust="spacing" textLength="40.8242" x="1043.6089" y="107.292">Views</text></g><g class="participant participant-tail" data-participant="Views"><rect fill="#E2E2F0" height="30.2969" rx="2.5" ry="2.5" style="stroke:#181818;stroke-width:0.5;" width="54.8242" x="1036.6089" y="720.25"/><text fill="#000000" font-family="sans-serif" font-size="14" lengthAdjust="spacing" textLength="40.8242" x="1043.6089" y="740.2451">Views</text></g><g class="message" data-participant-1="User" data-participant-2="Web"><polygon fill="#181818" points="164.6221,145.7266,174.6221,149.7266,164.6221,153.7266,168.6221,149.7266" style="stroke:#181818;stroke-width:1;"/><line style="stroke:#181818;stroke-width:1;" x1="23.9551" x2="170.6221" y1="149.7266" y2="149.7266"/><text fill="#000000" font-family="sans-serif" font-size="13" lengthAdjust="spacing" textLength="91.5205" x="30.9551" y="144.6606">access /daftar</text></g><g class="message" data-participant-1="Web" data-participant-2="Controller"><polygon fill="#181818" points="422.5205,174.8594,432.5205,178.8594,422.5205,182.8594,426.5205,178.8594" style="stroke:#181818;stroke-width:1;"/><line style="stroke:#181818;stroke-width:1;" x1="176.6221" x2="428.5205" y1="178.8594" y2="178.8594"/><text fill="#000000" font-family="sans-serif" font-size="13" lengthAdjust="spacing" textLength="233.8984" x="183.6221" y="173.7935">PendaftaranController@showForm()</text></g><g class="message" data-participant-1="Controller" data-participant-2="Views"><polygon fill="#181818" points="1052.021,203.9922,1062.021,207.9922,1052.021,211.9922,1056.021,207.9922" style="stroke:#181818;stroke-width:1;"/><line style="stroke:#181818;stroke-width:1;" x1="434.5205" x2="1058.021" y1="207.9922" y2="207.9922"/><text fill="#000000" font-family="sans-serif" font-size="13" lengthAdjust="spacing" textLength="184.2153" x="441.5205" y="202.9263">form-pendaftaran.blade.php</text></g><g class="message" data-participant-1="User" data-participant-2="Web"><polygon fill="#181818" points="164.6221,233.125,174.6221,237.125,164.6221,241.125,168.6221,237.125" style="stroke:#181818;stroke-width:1;"/><line style="stroke:#181818;stroke-width:1;" x1="23.9551" x2="170.6221" y1="237.125" y2="237.125"/><text fill="#000000" font-family="sans-serif" font-size="13" lengthAdjust="spacing" textLength="128.667" x="30.9551" y="232.0591">submit pendaftaran</text></g><g class="message" data-participant-1="Web" data-participant-2="Controller"><polygon fill="#181818" points="422.5205,262.2578,432.5205,266.2578,422.5205,270.2578,426.5205,266.2578" style="stroke:#181818;stroke-width:1;"/><line style="stroke:#181818;stroke-width:1;" x1="176.6221" x2="428.5205" y1="266.2578" y2="266.2578"/><text fill="#000000" font-family="sans-serif" font-size="13" lengthAdjust="spacing" textLength="200.0273" x="183.6221" y="261.1919">PendaftaranController@store()</text></g><g class="message" data-participant-1="Controller" data-participant-2="Models"><polygon fill="#181818" points="905.0605,291.3906,915.0605,295.3906,905.0605,299.3906,909.0605,295.3906" style="stroke:#181818;stroke-width:1;"/><line style="stroke:#181818;stroke-width:1;" x1="434.5205" x2="911.0605" y1="295.3906" y2="295.3906"/><text fill="#000000" font-family="sans-serif" font-size="13" lengthAdjust="spacing" textLength="153.1309" x="441.5205" y="290.3247">create DataSantri, User</text></g><g class="message" data-participant-1="Models" data-participant-2="Views"><polygon fill="#181818" points="1052.021,320.5234,1062.021,324.5234,1052.021,328.5234,1056.021,324.5234" style="stroke:#181818;stroke-width:1;"/><line style="stroke:#181818;stroke-width:1;" x1="917.0605" x2="1058.021" y1="324.5234" y2="324.5234"/><text fill="#000000" font-family="sans-serif" font-size="13" lengthAdjust="spacing" textLength="122.9604" x="924.0605" y="319.4575">redirect to success</text></g><g class="message" data-participant-1="User" data-participant-2="Web"><polygon fill="#181818" points="164.6221,349.6563,174.6221,353.6563,164.6221,357.6563,168.6221,353.6563" style="stroke:#181818;stroke-width:1;"/><line style="stroke:#181818;stroke-width:1;" x1="23.9551" x2="170.6221" y1="353.6563" y2="353.6563"/><text fill="#000000" font-family="sans-serif" font-size="13" lengthAdjust="spacing" textLength="95.4053" x="30.9551" y="348.5903">login as admin</text></g><g class="message" data-participant-1="Web" data-participant-2="Controller"><polygon fill="#181818" points="422.5205,378.7891,432.5205,382.7891,422.5205,386.7891,426.5205,382.7891" style="stroke:#181818;stroke-width:1;"/><line style="stroke:#181818;stroke-width:1;" x1="176.6221" x2="428.5205" y1="382.7891" y2="382.7891"/><text fill="#000000" font-family="sans-serif" font-size="13" lengthAdjust="spacing" textLength="149.5127" x="183.6221" y="377.7231">AuthController@login()</text></g><g class="message" data-participant-1="Controller" data-participant-2="Admin"><polygon fill="#181818" points="587.813,407.9219,597.813,411.9219,587.813,415.9219,591.813,411.9219" style="stroke:#181818;stroke-width:1;"/><line style="stroke:#181818;stroke-width:1;" x1="434.5205" x2="593.813" y1="411.9219" y2="411.9219"/><text fill="#000000" font-family="sans-serif" font-size="13" lengthAdjust="spacing" textLength="141.2925" x="441.5205" y="406.856">AdminDashboard.php</text></g><g class="message" data-participant-1="Admin" data-participant-2="Models"><polygon fill="#181818" points="905.0605,437.0547,915.0605,441.0547,905.0605,445.0547,909.0605,441.0547" style="stroke:#181818;stroke-width:1;"/><line style="stroke:#181818;stroke-width:1;" x1="599.813" x2="911.0605" y1="441.0547" y2="441.0547"/><text fill="#000000" font-family="sans-serif" font-size="13" lengthAdjust="spacing" textLength="136.3604" x="606.813" y="435.9888">load VerifikasiBerkas</text></g><g class="message" data-participant-1="Admin" data-participant-2="Views"><polygon fill="#181818" points="1052.021,466.1875,1062.021,470.1875,1052.021,474.1875,1056.021,470.1875" style="stroke:#181818;stroke-width:1;"/><line style="stroke:#181818;stroke-width:1;" x1="599.813" x2="1058.021" y1="470.1875" y2="470.1875"/><text fill="#000000" font-family="sans-serif" font-size="13" lengthAdjust="spacing" textLength="196.2568" x="606.813" y="465.1216">ListVerifikasiBerkas.blade.php</text></g><g class="message" data-participant-1="User" data-participant-2="Web"><polygon fill="#181818" points="164.6221,495.3203,174.6221,499.3203,164.6221,503.3203,168.6221,499.3203" style="stroke:#181818;stroke-width:1;"/><line style="stroke:#181818;stroke-width:1;" x1="23.9551" x2="170.6221" y1="499.3203" y2="499.3203"/><text fill="#000000" font-family="sans-serif" font-size="13" lengthAdjust="spacing" textLength="83.0273" x="30.9551" y="494.2544">login as user</text></g><g class="message" data-participant-1="Web" data-participant-2="Controller"><polygon fill="#181818" points="422.5205,524.4531,432.5205,528.4531,422.5205,532.4531,426.5205,528.4531" style="stroke:#181818;stroke-width:1;"/><line style="stroke:#181818;stroke-width:1;" x1="176.6221" x2="428.5205" y1="528.4531" y2="528.4531"/><text fill="#000000" font-family="sans-serif" font-size="13" lengthAdjust="spacing" textLength="149.5127" x="183.6221" y="523.3872">AuthController@login()</text></g><g class="message" data-participant-1="Controller" data-participant-2="UserPanel"><polygon fill="#181818" points="761.9404,553.5859,771.9404,557.5859,761.9404,561.5859,765.9404,557.5859" style="stroke:#181818;stroke-width:1;"/><line style="stroke:#181818;stroke-width:1;" x1="434.5205" x2="767.9404" y1="557.5859" y2="557.5859"/><text fill="#000000" font-family="sans-serif" font-size="13" lengthAdjust="spacing" textLength="129.2637" x="441.5205" y="552.52">UserDashboard.php</text></g><g class="message" data-participant-1="UserPanel" data-participant-2="Models"><polygon fill="#181818" points="905.0605,582.7188,915.0605,586.7188,905.0605,590.7188,909.0605,586.7188" style="stroke:#181818;stroke-width:1;"/><line style="stroke:#181818;stroke-width:1;" x1="773.9404" x2="911.0605" y1="586.7188" y2="586.7188"/><text fill="#000000" font-family="sans-serif" font-size="13" lengthAdjust="spacing" textLength="119.1201" x="780.9404" y="581.6528">fetch Pembayaran</text></g><g class="message" data-participant-1="UserPanel" data-participant-2="Views"><polygon fill="#181818" points="1052.021,611.8516,1062.021,615.8516,1052.021,619.8516,1056.021,615.8516" style="stroke:#181818;stroke-width:1;"/><line style="stroke:#181818;stroke-width:1;" x1="773.9404" x2="1058.021" y1="615.8516" y2="615.8516"/><text fill="#000000" font-family="sans-serif" font-size="13" lengthAdjust="spacing" textLength="173.7417" x="780.9404" y="610.7856">ListPembayaran.blade.php</text></g><g class="message" data-participant-1="User" data-participant-2="UserPanel"><polygon fill="#181818" points="761.9404,640.9844,771.9404,644.9844,761.9404,648.9844,765.9404,644.9844" style="stroke:#181818;stroke-width:1;"/><line style="stroke:#181818;stroke-width:1;" x1="23.9551" x2="767.9404" y1="644.9844" y2="644.9844"/><text fill="#000000" font-family="sans-serif" font-size="13" lengthAdjust="spacing" textLength="85.2554" x="30.9551" y="639.9185">trigger bayar</text></g><g class="message" data-participant-1="UserPanel" data-participant-2="Models"><polygon fill="#181818" points="905.0605,670.1172,915.0605,674.1172,905.0605,678.1172,909.0605,674.1172" style="stroke:#181818;stroke-width:1;"/><line style="stroke:#181818;stroke-width:1;" x1="773.9404" x2="911.0605" y1="674.1172" y2="674.1172"/><text fill="#000000" font-family="sans-serif" font-size="13" lengthAdjust="spacing" textLength="107.8276" x="780.9404" y="669.0513">create Transaksi</text></g><g class="message" data-participant-1="UserPanel" data-participant-2="Views"><polygon fill="#181818" points="1052.021,699.25,1062.021,703.25,1052.021,707.25,1056.021,703.25" style="stroke:#181818;stroke-width:1;"/><line style="stroke:#181818;stroke-width:1;" x1="773.9404" x2="1058.021" y1="703.25" y2="703.25"/><text fill="#000000" font-family="sans-serif" font-size="13" lengthAdjust="spacing" textLength="165.1089" x="780.9404" y="698.1841">redirect to pay.blade.php</text></g><!--SRC=[dLF1JkGm3BttAomEB4WCS-UmMbWq9v16mB9dj_Mq4MbJ77T7_3rk0fDqXZcmfoPvp_Pxjli3xf3n7rbO6OiTzGAFz3fINn7S6cmOErZ00pN62wCOryCfNDUTwPT_F37SeczBXrp3ohfj8KOi7QPy8Ez6rfJxkOi2At4CKwvYG1PJcG4rukGlbN36RXJooosLbqCxd9y0Ub1WplpjUc5dBN70qtLEsua9wc6D3VaG4Ev7kC5ZeaxNDVPav_HxLvEDZ7YSmy-6jX4Dfw88MHS_9ojm1LXLv3qiQzm8SZ4zAfPiA6LDVKInJ- -_VEksAyVTsNcHiJKsbD6mZOAB8SLUbXPhcbgvhy6FPMS4CkvtTEW4wK14x8G6LKmeEd4KVDH-iBc8u_uWP7gPQiDK2OXJHQ4j-qAjQtHusaeCK_jAvFKeRQOkH1oeYqjm5R-x9GwjYL3km3giuPdORCmBUdD3h9_4-vH_f__8FkjuotTEngaP_srajv8QC9tdNXAQ-zcGLAqEiolnBSnwHilj94vcvDD7Nbh7sZJw7DX7oduimfDcy_ZYpTTbyoKOy2tLVGS0]--></g></svg>