<svg xmlns="http://www.w3.org/2000/svg" xmlns:xlink="http://www.w3.org/1999/xlink" contentStyleType="text/css" data-diagram-type="SEQUENCE" height="812px" preserveAspectRatio="none" style="width:1122px;height:812px;background:#FFFFFF;" version="1.1" viewBox="0 0 1122 812" width="1122px" zoomAndPan="magnify"><title>Laravel Filament Resource Sequence Diagram</title><defs/><g><text fill="#000000" font-family="Verdana" font-size="22" font-weight="bold" lengthAdjust="spacing" textLength="571.2588" x="282.0872" y="35.4209">Laravel Filament Resource Sequence Diagram</text><g><title>User</title><rect fill="#000000" fill-opacity="0.00000" height="602.6563" width="8" x="24.9551" y="128.9063"/><line style="stroke:#000000;stroke-width:1;" x1="28" x2="28" y1="128.9063" y2="731.5625"/></g><g><title>View</title><rect fill="#000000" fill-opacity="0.00000" height="602.6563" width="8" x="177.6221" y="128.9063"/><line style="stroke:#000000;stroke-width:1;" x1="180.8569" x2="180.8569" y1="128.9063" y2="731.5625"/></g><g><title>Controller</title><rect fill="#000000" fill-opacity="0.00000" height="602.6563" width="8" x="435.5205" y="128.9063"/><line style="stroke:#000000;stroke-width:1;" x1="438.9341" x2="438.9341" y1="128.9063" y2="731.5625"/></g><g><title>Filament Admin Pages</title><rect fill="#000000" fill-opacity="0.00000" height="602.6563" width="8" x="600.813" y="128.9063"/><line style="stroke:#000000;stroke-width:1;" x1="604.5107" x2="604.5107" y1="128.9063" y2="731.5625"/></g><g><title>Filament User Pages</title><rect fill="#000000" fill-opacity="0.00000" height="602.6563" width="8" x="794.9404" y="128.9063"/><line style="stroke:#000000;stroke-width:1;" x1="798.1152" x2="798.1152" y1="128.9063" y2="731.5625"/></g><g><title>Models</title><rect fill="#000000" fill-opacity="0.00000" height="602.6563" width="8" x="938.0605" y="128.9063"/><line style="stroke:#000000;stroke-width:1;" x1="941.3965" x2="941.3965" y1="128.9063" y2="731.5625"/></g><g><title>Views</title><rect fill="#000000" fill-opacity="0.00000" height="602.6563" width="8" x="1085.021" y="128.9063"/><line style="stroke:#000000;stroke-width:1;" x1="1088.6089" x2="1088.6089" y1="128.9063" y2="731.5625"/></g><g class="participant participant-head" data-participant="User"><text fill="#000000" font-family="Verdana" font-size="14" lengthAdjust="spacing" textLength="31.9102" x="10" y="125.6045">User</text><ellipse cx="28.9551" cy="60.6094" fill="#FFFFFF" rx="8" ry="8" style="stroke:#000000;stroke-width:1;"/><path d="M28.9551,68.6094 L28.9551,95.6094 M15.9551,76.6094 L41.9551,76.6094 M28.9551,95.6094 L15.9551,110.6094 M28.9551,95.6094 L41.9551,110.6094" fill="none" style="stroke:#000000;stroke-width:1;"/></g><g class="participant participant-tail" data-participant="User"><text fill="#000000" font-family="Verdana" font-size="14" lengthAdjust="spacing" textLength="31.9102" x="10" y="743.5576">User</text><ellipse cx="28.9551" cy="755.8594" fill="#FFFFFF" rx="8" ry="8" style="stroke:#000000;stroke-width:1;"/><path d="M28.9551,763.8594 L28.9551,790.8594 M15.9551,771.8594 L41.9551,771.8594 M28.9551,790.8594 L15.9551,805.8594 M28.9551,790.8594 L41.9551,805.8594" fill="none" style="stroke:#000000;stroke-width:1;"/></g><g class="participant participant-head" data-participant="Web"><rect fill="#FFFFFF" height="30.2969" rx="2.5" ry="2.5" style="stroke:#000000;stroke-width:1;" width="47.5303" x="157.8569" y="97.6094"/><text fill="#000000" font-family="Verdana" font-size="14" lengthAdjust="spacing" textLength="33.5303" x="164.8569" y="117.6045">View</text></g><g class="participant participant-tail" data-participant="Web"><rect fill="#FFFFFF" height="30.2969" rx="2.5" ry="2.5" style="stroke:#000000;stroke-width:1;" width="47.5303" x="157.8569" y="730.5625"/><text fill="#000000" font-family="Verdana" font-size="14" lengthAdjust="spacing" textLength="33.5303" x="164.8569" y="750.5576">View</text></g><g class="participant participant-head" data-participant="Controller"><rect fill="#FFFFFF" height="30.2969" rx="2.5" ry="2.5" style="stroke:#000000;stroke-width:1;" width="83.1729" x="397.9341" y="97.6094"/><text fill="#000000" font-family="Verdana" font-size="14" lengthAdjust="spacing" textLength="69.1729" x="404.9341" y="117.6045">Controller</text></g><g class="participant participant-tail" data-participant="Controller"><rect fill="#FFFFFF" height="30.2969" rx="2.5" ry="2.5" style="stroke:#000000;stroke-width:1;" width="83.1729" x="397.9341" y="730.5625"/><text fill="#000000" font-family="Verdana" font-size="14" lengthAdjust="spacing" textLength="69.1729" x="404.9341" y="750.5576">Controller</text></g><g class="participant participant-head" data-participant="Admin"><rect fill="#FFFFFF" height="30.2969" rx="2.5" ry="2.5" style="stroke:#000000;stroke-width:1;" width="170.6045" x="519.5107" y="97.6094"/><text fill="#000000" font-family="Verdana" font-size="14" lengthAdjust="spacing" textLength="156.6045" x="526.5107" y="117.6045">Filament Admin Pages</text></g><g class="participant participant-tail" data-participant="Admin"><rect fill="#FFFFFF" height="30.2969" rx="2.5" ry="2.5" style="stroke:#000000;stroke-width:1;" width="170.6045" x="519.5107" y="730.5625"/><text fill="#000000" font-family="Verdana" font-size="14" lengthAdjust="spacing" textLength="156.6045" x="526.5107" y="750.5576">Filament Admin Pages</text></g><g class="participant participant-head" data-participant="UserPanel"><rect fill="#FFFFFF" height="30.2969" rx="2.5" ry="2.5" style="stroke:#000000;stroke-width:1;" width="157.6504" x="720.1152" y="97.6094"/><text fill="#000000" font-family="Verdana" font-size="14" lengthAdjust="spacing" textLength="143.6504" x="727.1152" y="117.6045">Filament User Pages</text></g><g class="participant participant-tail" data-participant="UserPanel"><rect fill="#FFFFFF" height="30.2969" rx="2.5" ry="2.5" style="stroke:#000000;stroke-width:1;" width="157.6504" x="720.1152" y="730.5625"/><text fill="#000000" font-family="Verdana" font-size="14" lengthAdjust="spacing" textLength="143.6504" x="727.1152" y="750.5576">Filament User Pages</text></g><g class="participant participant-head" data-participant="Models"><rect fill="#FFFFFF" height="30.2969" rx="2.5" ry="2.5" style="stroke:#000000;stroke-width:1;" width="63.3281" x="910.3965" y="97.6094"/><text fill="#000000" font-family="Verdana" font-size="14" lengthAdjust="spacing" textLength="49.3281" x="917.3965" y="117.6045">Models</text></g><g class="participant participant-tail" data-participant="Models"><rect fill="#FFFFFF" height="30.2969" rx="2.5" ry="2.5" style="stroke:#000000;stroke-width:1;" width="63.3281" x="910.3965" y="730.5625"/><text fill="#000000" font-family="Verdana" font-size="14" lengthAdjust="spacing" textLength="49.3281" x="917.3965" y="750.5576">Models</text></g><g class="participant participant-head" data-participant="Views"><rect fill="#FFFFFF" height="30.2969" rx="2.5" ry="2.5" style="stroke:#000000;stroke-width:1;" width="54.8242" x="1061.6089" y="97.6094"/><text fill="#000000" font-family="Verdana" font-size="14" lengthAdjust="spacing" textLength="40.8242" x="1068.6089" y="117.6045">Views</text></g><g class="participant participant-tail" data-participant="Views"><rect fill="#FFFFFF" height="30.2969" rx="2.5" ry="2.5" style="stroke:#000000;stroke-width:1;" width="54.8242" x="1061.6089" y="730.5625"/><text fill="#000000" font-family="Verdana" font-size="14" lengthAdjust="spacing" textLength="40.8242" x="1068.6089" y="750.5576">Views</text></g><g class="message" data-participant-1="User" data-participant-2="Web"><polygon fill="#000000" points="169.6221,156.0391,179.6221,160.0391,169.6221,164.0391,173.6221,160.0391" style="stroke:#000000;stroke-width:1;"/><line style="stroke:#000000;stroke-width:1;" x1="28.9551" x2="175.6221" y1="160.0391" y2="160.0391"/><text fill="#000000" font-family="Verdana" font-size="13" lengthAdjust="spacing" textLength="91.5205" x="35.9551" y="154.9731">access /daftar</text></g><g class="message" data-participant-1="Web" data-participant-2="Controller"><polygon fill="#000000" points="427.5205,185.1719,437.5205,189.1719,427.5205,193.1719,431.5205,189.1719" style="stroke:#000000;stroke-width:1;"/><line style="stroke:#000000;stroke-width:1;" x1="181.6221" x2="433.5205" y1="189.1719" y2="189.1719"/><text fill="#000000" font-family="Verdana" font-size="13" lengthAdjust="spacing" textLength="233.8984" x="188.6221" y="184.106">PendaftaranController@showForm()</text></g><g class="message" data-participant-1="Controller" data-participant-2="Views"><polygon fill="#000000" points="1077.021,214.3047,1087.021,218.3047,1077.021,222.3047,1081.021,218.3047" style="stroke:#000000;stroke-width:1;"/><line style="stroke:#000000;stroke-width:1;" x1="439.5205" x2="1083.021" y1="218.3047" y2="218.3047"/><text fill="#000000" font-family="Verdana" font-size="13" lengthAdjust="spacing" textLength="184.2153" x="446.5205" y="213.2388">form-pendaftaran.blade.php</text></g><g class="message" data-participant-1="User" data-participant-2="Web"><polygon fill="#000000" points="169.6221,243.4375,179.6221,247.4375,169.6221,251.4375,173.6221,247.4375" style="stroke:#000000;stroke-width:1;"/><line style="stroke:#000000;stroke-width:1;" x1="28.9551" x2="175.6221" y1="247.4375" y2="247.4375"/><text fill="#000000" font-family="Verdana" font-size="13" lengthAdjust="spacing" textLength="128.667" x="35.9551" y="242.3716">submit pendaftaran</text></g><g class="message" data-participant-1="Web" data-participant-2="Controller"><polygon fill="#000000" points="427.5205,272.5703,437.5205,276.5703,427.5205,280.5703,431.5205,276.5703" style="stroke:#000000;stroke-width:1;"/><line style="stroke:#000000;stroke-width:1;" x1="181.6221" x2="433.5205" y1="276.5703" y2="276.5703"/><text fill="#000000" font-family="Verdana" font-size="13" lengthAdjust="spacing" textLength="200.0273" x="188.6221" y="271.5044">PendaftaranController@store()</text></g><g class="message" data-participant-1="Controller" data-participant-2="Models"><polygon fill="#000000" points="930.0605,301.7031,940.0605,305.7031,930.0605,309.7031,934.0605,305.7031" style="stroke:#000000;stroke-width:1;"/><line style="stroke:#000000;stroke-width:1;" x1="439.5205" x2="936.0605" y1="305.7031" y2="305.7031"/><text fill="#000000" font-family="Verdana" font-size="13" lengthAdjust="spacing" textLength="153.1309" x="446.5205" y="300.6372">create DataSantri, User</text></g><g class="message" data-participant-1="Models" data-participant-2="Views"><polygon fill="#000000" points="1077.021,330.8359,1087.021,334.8359,1077.021,338.8359,1081.021,334.8359" style="stroke:#000000;stroke-width:1;"/><line style="stroke:#000000;stroke-width:1;" x1="942.0605" x2="1083.021" y1="334.8359" y2="334.8359"/><text fill="#000000" font-family="Verdana" font-size="13" lengthAdjust="spacing" textLength="122.9604" x="949.0605" y="329.77">redirect to success</text></g><g class="message" data-participant-1="User" data-participant-2="Web"><polygon fill="#000000" points="169.6221,359.9688,179.6221,363.9688,169.6221,367.9688,173.6221,363.9688" style="stroke:#000000;stroke-width:1;"/><line style="stroke:#000000;stroke-width:1;" x1="28.9551" x2="175.6221" y1="363.9688" y2="363.9688"/><text fill="#000000" font-family="Verdana" font-size="13" lengthAdjust="spacing" textLength="95.4053" x="35.9551" y="358.9028">login as admin</text></g><g class="message" data-participant-1="Web" data-participant-2="Controller"><polygon fill="#000000" points="427.5205,389.1016,437.5205,393.1016,427.5205,397.1016,431.5205,393.1016" style="stroke:#000000;stroke-width:1;"/><line style="stroke:#000000;stroke-width:1;" x1="181.6221" x2="433.5205" y1="393.1016" y2="393.1016"/><text fill="#000000" font-family="Verdana" font-size="13" lengthAdjust="spacing" textLength="149.5127" x="188.6221" y="388.0356">AuthController@login()</text></g><g class="message" data-participant-1="Controller" data-participant-2="Admin"><polygon fill="#000000" points="592.813,418.2344,602.813,422.2344,592.813,426.2344,596.813,422.2344" style="stroke:#000000;stroke-width:1;"/><line style="stroke:#000000;stroke-width:1;" x1="439.5205" x2="598.813" y1="422.2344" y2="422.2344"/><text fill="#000000" font-family="Verdana" font-size="13" lengthAdjust="spacing" textLength="141.2925" x="446.5205" y="417.1685">AdminDashboard.php</text></g><g class="message" data-participant-1="Admin" data-participant-2="Models"><polygon fill="#000000" points="930.0605,447.3672,940.0605,451.3672,930.0605,455.3672,934.0605,451.3672" style="stroke:#000000;stroke-width:1;"/><line style="stroke:#000000;stroke-width:1;" x1="604.813" x2="936.0605" y1="451.3672" y2="451.3672"/><text fill="#000000" font-family="Verdana" font-size="13" lengthAdjust="spacing" textLength="136.3604" x="611.813" y="446.3013">load VerifikasiBerkas</text></g><g class="message" data-participant-1="Admin" data-participant-2="Views"><polygon fill="#000000" points="1077.021,476.5,1087.021,480.5,1077.021,484.5,1081.021,480.5" style="stroke:#000000;stroke-width:1;"/><line style="stroke:#000000;stroke-width:1;" x1="604.813" x2="1083.021" y1="480.5" y2="480.5"/><text fill="#000000" font-family="Verdana" font-size="13" lengthAdjust="spacing" textLength="196.2568" x="611.813" y="475.4341">ListVerifikasiBerkas.blade.php</text></g><g class="message" data-participant-1="User" data-participant-2="Web"><polygon fill="#000000" points="169.6221,505.6328,179.6221,509.6328,169.6221,513.6328,173.6221,509.6328" style="stroke:#000000;stroke-width:1;"/><line style="stroke:#000000;stroke-width:1;" x1="28.9551" x2="175.6221" y1="509.6328" y2="509.6328"/><text fill="#000000" font-family="Verdana" font-size="13" lengthAdjust="spacing" textLength="83.0273" x="35.9551" y="504.5669">login as user</text></g><g class="message" data-participant-1="Web" data-participant-2="Controller"><polygon fill="#000000" points="427.5205,534.7656,437.5205,538.7656,427.5205,542.7656,431.5205,538.7656" style="stroke:#000000;stroke-width:1;"/><line style="stroke:#000000;stroke-width:1;" x1="181.6221" x2="433.5205" y1="538.7656" y2="538.7656"/><text fill="#000000" font-family="Verdana" font-size="13" lengthAdjust="spacing" textLength="149.5127" x="188.6221" y="533.6997">AuthController@login()</text></g><g class="message" data-participant-1="Controller" data-participant-2="UserPanel"><polygon fill="#000000" points="786.9404,563.8984,796.9404,567.8984,786.9404,571.8984,790.9404,567.8984" style="stroke:#000000;stroke-width:1;"/><line style="stroke:#000000;stroke-width:1;" x1="439.5205" x2="792.9404" y1="567.8984" y2="567.8984"/><text fill="#000000" font-family="Verdana" font-size="13" lengthAdjust="spacing" textLength="129.2637" x="446.5205" y="562.8325">UserDashboard.php</text></g><g class="message" data-participant-1="UserPanel" data-participant-2="Models"><polygon fill="#000000" points="930.0605,593.0313,940.0605,597.0313,930.0605,601.0313,934.0605,597.0313" style="stroke:#000000;stroke-width:1;"/><line style="stroke:#000000;stroke-width:1;" x1="798.9404" x2="936.0605" y1="597.0313" y2="597.0313"/><text fill="#000000" font-family="Verdana" font-size="13" lengthAdjust="spacing" textLength="119.1201" x="805.9404" y="591.9653">fetch Pembayaran</text></g><g class="message" data-participant-1="UserPanel" data-participant-2="Views"><polygon fill="#000000" points="1077.021,622.1641,1087.021,626.1641,1077.021,630.1641,1081.021,626.1641" style="stroke:#000000;stroke-width:1;"/><line style="stroke:#000000;stroke-width:1;" x1="798.9404" x2="1083.021" y1="626.1641" y2="626.1641"/><text fill="#000000" font-family="Verdana" font-size="13" lengthAdjust="spacing" textLength="173.7417" x="805.9404" y="621.0981">ListPembayaran.blade.php</text></g><g class="message" data-participant-1="User" data-participant-2="UserPanel"><polygon fill="#000000" points="786.9404,651.2969,796.9404,655.2969,786.9404,659.2969,790.9404,655.2969" style="stroke:#000000;stroke-width:1;"/><line style="stroke:#000000;stroke-width:1;" x1="28.9551" x2="792.9404" y1="655.2969" y2="655.2969"/><text fill="#000000" font-family="Verdana" font-size="13" lengthAdjust="spacing" textLength="85.2554" x="35.9551" y="650.231">trigger bayar</text></g><g class="message" data-participant-1="UserPanel" data-participant-2="Models"><polygon fill="#000000" points="930.0605,680.4297,940.0605,684.4297,930.0605,688.4297,934.0605,684.4297" style="stroke:#000000;stroke-width:1;"/><line style="stroke:#000000;stroke-width:1;" x1="798.9404" x2="936.0605" y1="684.4297" y2="684.4297"/><text fill="#000000" font-family="Verdana" font-size="13" lengthAdjust="spacing" textLength="107.8276" x="805.9404" y="679.3638">create Transaksi</text></g><g class="message" data-participant-1="UserPanel" data-participant-2="Views"><polygon fill="#000000" points="1077.021,709.5625,1087.021,713.5625,1077.021,717.5625,1081.021,713.5625" style="stroke:#000000;stroke-width:1;"/><line style="stroke:#000000;stroke-width:1;" x1="798.9404" x2="1083.021" y1="713.5625" y2="713.5625"/><text fill="#000000" font-family="Verdana" font-size="13" lengthAdjust="spacing" textLength="165.1089" x="805.9404" y="708.4966">redirect to pay.blade.php</text></g><!--SRC=[dLF1JkGm3BtdAmo7NLPYuCu1mOBcn4eZOE7ijfus8aswJheZ_XutWKawmnpWr2H-ptxFTez2Hpt1O51RzHFkaF4_6LXgWptP00_qRoHR4zngR1bxMC0zjTe7ng2TXHzmtVJQdl_rn72BlgiSSWDBupOgw61eF-KzUJUofDpDhHJMmJ5CkTI077Ij1nJ6yPEcpJ6WXsUgvf4RPmCxOuXZF5_di6tng1PMs9AFX7W_W8sUCdIwhj2IcSF_k8PCGgJZllGKZIUbOjR5vMG5BW3hcho7ymRN0LbDZnBBDWIo8fkYQFFxbU_SPkcuF_cb2hHmOncXhIMu63Bth3BOqDdG3RiQ_5ZrEa21_OeEcHZjYKYT45BDX44cZ04Vf1-iJzDutm65NgP6CzK1WXD5iIsxGerhPNZIIenJ-qpazHYwGbraxAbBIt2HljkbZQr9eTA1STZ04x5UwnVq-ZUnV3BkG_wT_1ExgCCjtpePfsPysyXs9OKmdUTUShJqiwPGTpBCliBNEEiPhBIJCOMH3nzbQHbhsyfpH1ye-xu8ZvBDuulNdvSjbs30rrpt3G00]--></g></svg>